<?xml version="1.0" encoding="UTF-8"?>
<svg xmlns="http://www.w3.org/2000/svg" width="160" height="56" viewBox="0 0 42.333332 14.816667" version="1.1">
   <g transform="translate(-0.19798553,-18.351387)" style="fill:#F37E21">
      <path
         d="m 9.9628989,31.675103 q -1.4675571,0 -2.3480913,-0.564445 Q 6.7568512,30.546213 6.3956064,29.552789 6.0343615,28.536788 6.0343615,27.204698 V 23.140694 H 2.1961354 v -2.889958 l 1.7159129,-0.135467 h 9.8439207 v 3.025425 H 9.8274321 q -0.067733,1.219201 -0.112889,2.348091 -0.022578,1.12889 -0.022578,1.85138 0,0.699912 0.3612449,0.970845 0.383823,0.248356 0.948268,0.248356 0.361245,0 0.699912,-0.06773 0.338667,-0.09031 0.835378,-0.248356 l 0.496712,2.889958 q -0.677334,0.225778 -1.444979,0.383823 -0.767646,0.158045 -1.6256023,0.158045 z" 
         shape-rendering="geometricPrecision"/>
      <path
         d="m 19.987408,31.675103 q -2.009424,0 -3.228625,-1.580446 -1.196624,-1.603024 -1.196624,-4.334938 0,-1.85138 0.654756,-3.160892 0.677334,-1.33209 1.715913,-2.032002 1.061157,-0.72249 2.235202,-0.72249 0.632179,0 1.151468,0.2032 0.541868,0.180623 1.016001,0.609601 0.474134,0.428978 0.857957,1.174046 h 0.09031 l 0.316089,-1.715913 h 3.838226 q -0.225778,0.92569 -0.496711,1.986846 -0.248356,1.038579 -0.474134,2.077158 -0.225778,1.038579 -0.383823,1.919113 -0.135467,0.880534 -0.135467,1.467557 0,0.564445 0.293512,0.790223 0.316089,0.2032 0.790223,0.2032 0.158045,0 0.338667,-0.02258 0.180622,-0.04516 0.383823,-0.112889 l 0.451556,2.844803 q -0.338667,0.158045 -0.880535,0.270934 -0.541867,0.135467 -1.286934,0.135467 -1.241779,0 -2.009425,-0.361245 -0.745067,-0.383823 -1.151467,-1.354668 h -0.09031 q -1.016001,1.715913 -2.799647,1.715913 z m 0.948268,-3.160892 q 0.361245,0 0.677334,-0.270934 0.338667,-0.270934 0.541867,-0.72249 0.225778,-0.474133 0.270934,-1.038578 l 0.135466,-1.896536 q -0.135466,-0.338667 -0.316089,-0.632178 -0.180622,-0.293512 -0.383822,-0.496712 -0.203201,-0.2032 -0.428979,-0.316089 -0.2032,-0.135467 -0.4064,-0.135467 -0.361245,0 -0.699912,0.270934 -0.338667,0.248356 -0.564445,0.857956 -0.225778,0.587023 -0.225778,1.580446 0,1.512713 0.383823,2.167469 0.383822,0.632179 1.016001,0.632179 z" 
         shape-rendering="geometricPrecision"/>
      <path
         d="m 34.933878,31.675103 q -1.873958,0 -3.025425,-0.677334 -1.151468,-0.699912 -1.670758,-1.873958 -0.496711,-1.174045 -0.496711,-2.619025 0,-0.699912 0.04515,-1.377246 0.04516,-0.699911 0.04516,-1.399823 0,-0.677334 -0.04516,-1.670757 -0.04515,-0.993424 -0.225778,-1.941691 h 3.747915 q 0.135467,0.564445 0.180623,1.309512 0.04515,0.72249 0.04515,1.535291 0,0.564445 -0.06773,1.693335 -0.06773,1.106312 -0.06773,2.190046 0,0.51929 0.180623,0.903112 0.2032,0.383823 0.541867,0.609601 0.361245,0.2032 0.812801,0.2032 0.6096,0 0.970845,-0.338667 0.383823,-0.338667 0.564445,-1.038579 0.180623,-0.722489 0.180623,-1.828802 0,-0.970845 -0.158045,-2.099735 -0.158045,-1.151468 -0.519289,-2.596447 l 3.747915,-0.812801 q 0.316089,1.264357 0.564445,2.619025 0.248355,1.354668 0.248355,2.686758 0,1.986847 -0.6096,3.454404 -0.609601,1.467557 -1.85138,2.280358 -1.241779,0.790223 -3.138314,0.790223 z" 
         shape-rendering="geometricPrecision"/>
   </g>
</svg>