<?xml version="1.0" encoding="UTF-8"?>
<svg xmlns="http://www.w3.org/2000/svg" width="240" height="36" viewBox="0 0 63.499998 9.525" version="1.1">
   <g style="fill:#2196F3">
      <path
         d="M 3.1275384,8.3819885 V 3.0268389 H 1.1484614 V 1.5028438 H 6.926943 V 3.0268389 H 4.947866 v 5.3551496 z" />
      <path
         d="M 7.8900072,8.3819885 V 1.016012 h 1.8203275 v 1.7144945 l -0.105833,0.9313304 h 0.042333 q 0.2539992,-0.2539992 0.6667481,-0.4762485 0.423332,-0.2222493 1.005413,-0.2222493 0.878414,0 1.269996,0.5926648 0.402166,0.5820815 0.402166,1.5663283 V 8.3819885 H 11.17083 V 5.3551648 q 0,-0.4444986 -0.137583,-0.6455812 -0.126999,-0.2010827 -0.476248,-0.2010827 -0.254,0 -0.444499,0.105833 -0.1904993,0.105833 -0.4021653,0.2963323 v 3.4713223 z" />
      <path
         d="m 15.848632,8.5089881 q -0.550331,0 -0.93133,-0.2222493 Q 14.536303,8.0539062 14.335221,7.6834907 14.134138,7.3130753 14.134138,6.87916 q 0,-0.8889972 0.761997,-1.3546624 0.772581,-0.4762485 2.582326,-0.5714982 -0.03175,-0.1904994 -0.15875,-0.3069156 -0.127,-0.1269996 -0.349249,-0.1799161 -0.211666,-0.0635 -0.507998,-0.0635 -0.22225,0 -0.455082,0.052917 -0.232833,0.042333 -0.497415,0.1481662 -0.253999,0.09525 -0.571498,0.2434158 L 14.303471,3.6618369 q 0.402165,-0.2222493 0.814914,-0.3809988 0.412748,-0.1587495 0.83608,-0.2328326 0.423332,-0.084666 0.867831,-0.084666 0.751414,0 1.301746,0.2645825 0.560915,0.2539992 0.86783,0.8043308 0.306916,0.5397483 0.306916,1.4075788 V 8.3819885 H 17.817126 L 17.690127,7.8316569 h -0.04233 Q 17.256211,8.117406 16.801129,8.3184887 16.346047,8.5089881 15.848632,8.5089881 Z m 0.592665,-1.3969955 q 0.317499,0 0.571498,-0.1164163 0.254,-0.1269996 0.465666,-0.2857491 V 6.032496 q -0.645582,0.021167 -0.994831,0.1164163 -0.349249,0.09525 -0.486831,0.2539992 -0.127,0.1481662 -0.127,0.3280823 0,0.1164163 0.0635,0.211666 0.0635,0.084666 0.190499,0.1269996 0.127,0.042333 0.317499,0.042333 z" />
      <path
         d="M 20.589934,8.3819885 V 3.0903387 h 1.481662 l 0.127,0.634998 h 0.04233 q 0.317499,-0.3069157 0.751414,-0.529165 0.433915,-0.2328326 1.015997,-0.2328326 0.878414,0 1.280579,0.5926648 0.402165,0.5820815 0.402165,1.5663283 V 8.3819885 H 23.870757 V 5.3551648 q 0,-0.4444986 -0.137583,-0.6455812 -0.127,-0.2010827 -0.476248,-0.2010827 -0.254,0 -0.444499,0.105833 -0.190499,0.105833 -0.402165,0.2963323 v 3.4713223 z" />
      <path
         d="M 26.939898,8.3819885 V 1.016012 h 1.820328 v 3.958154 h 0.04233 L 30.41122,3.0903387 h 1.968494 L 28.760226,7.090826 v 1.2911625 z m 3.598322,0 -1.333496,-2.2436595 1.037164,-1.1218298 2.264826,3.3654893 z" />
      <path
         d="M 41.227319,8.3819885 V 6.1065791 L 39.04716,1.5028438 h 1.947327 l 0.571498,1.5028285 q 0.137583,0.3915821 0.275166,0.7725809 0.148166,0.3809988 0.285749,0.7937475 h 0.04233 Q 42.317399,4.159252 42.465566,3.7782532 42.613732,3.3972544 42.751315,3.0056723 l 0.571498,-1.5028285 h 1.904994 l -2.18016,4.6037353 v 2.2754094 z" />
      <path
         d="m 48.487447,8.5089881 q -0.698497,0 -1.322912,-0.3280823 Q 46.54012,7.8528235 46.148538,7.2389922 45.756956,6.6145775 45.756956,5.7361636 q 0,-0.8784139 0.391582,-1.4922452 0.391582,-0.6244147 1.015997,-0.952497 0.624415,-0.3280823 1.322912,-0.3280823 0.698498,0 1.322913,0.3280823 0.624415,0.3280823 1.015997,0.952497 0.391582,0.6138313 0.391582,1.4922452 0,0.8784139 -0.391582,1.5028286 -0.391582,0.6138313 -1.015997,0.9419136 -0.624415,0.3280823 -1.322913,0.3280823 z m 0,-1.4604953 q 0.306916,0 0.497415,-0.1587495 0.1905,-0.1587495 0.275166,-0.4550819 0.09525,-0.2963324 0.09525,-0.6984978 0,-0.4021654 -0.09525,-0.6984978 -0.08467,-0.2963323 -0.275166,-0.4550818 -0.190499,-0.1587495 -0.497415,-0.1587495 -0.306915,0 -0.497415,0.1587495 -0.190499,0.1587495 -0.285749,0.4550818 -0.08467,0.2963324 -0.08467,0.6984978 0,0.4021654 0.08467,0.6984978 0.09525,0.2963324 0.285749,0.4550819 0.1905,0.1587495 0.497415,0.1587495 z" />
      <path
         d="m 53.927248,8.5089881 q -0.888997,0 -1.280579,-0.5820815 Q 52.255086,7.3342419 52.255086,6.349995 V 3.0903387 h 1.820328 v 3.0268237 q 0,0.4444986 0.116416,0.6455813 0.127,0.2010827 0.486832,0.2010827 0.232833,0 0.412749,-0.084666 0.179916,-0.09525 0.380999,-0.3809988 V 3.0903387 h 1.820327 V 8.3819885 H 55.811075 L 55.684076,7.6834907 h -0.04233 Q 55.31366,8.0644895 54.900911,8.2867388 54.488163,8.5089881 53.927248,8.5089881 Z" />
      <path
         d="m 60.594711,5.5879974 -0.253999,-2.7304913 -0.0635,-1.5663283 h 1.820327 l -0.0635,1.5663283 -0.254,2.7304913 z m 0.592665,2.9209907 q -0.507999,0 -0.836081,-0.3280823 -0.328082,-0.3386656 -0.328082,-0.8466639 0,-0.5079984 0.328082,-0.8254974 0.328082,-0.3280823 0.836081,-0.3280823 0.507998,0 0.83608,0.3280823 0.328083,0.317499 0.328083,0.8254974 0,0.5079983 -0.328083,0.8466639 -0.328082,0.3280823 -0.83608,0.3280823 z" />
   </g>
</svg>